<?xml version="1.0" encoding="UTF-8"?>
<svg width="32px" height="32px" viewBox="0 0 32 32" version="1.1" xmlns="http://www.w3.org/2000/svg">
    <circle cx="16" cy="16" r="15" fill="white" stroke="black" stroke-width="1"/>
    <path d="M16,1 C7.716,1 1,7.716 1,16 C1,24.284 7.716,31 16,31 C24.284,31 31,24.284 31,16 C31,7.716 24.284,1 16,1 Z M25.5,16 C25.5,21.247 21.247,25.5 16,25.5 C10.753,25.5 6.5,21.247 6.5,16 C6.5,10.753 10.753,6.5 16,6.5 C21.247,6.5 25.5,10.753 25.5,16 Z" fill="#000000"/>
    <path d="M16,7 L19,12 L24,13 L20,17 L21,22 L16,20 L11,22 L12,17 L8,13 L13,12 Z" fill="#000000"/>
</svg>